<svg xmlns="http://www.w3.org/2000/svg" width="1600" height="1000" viewBox="0 0 1600 1000"><defs><marker id="arrow" viewBox="0 0 10 10" refX="9" refY="5" markerWidth="7" markerHeight="7" orient="auto-start-reverse"><path d="M 0 0 L 10 5 L 0 10 z" fill="#1f6feb"/></marker></defs><rect x="0" y="0" width="1600" height="1000" rx="0" ry="0" fill="#ffffff" stroke="none" stroke-width="0"/><text x="70" y="78" font-family="'Helvetica Neue', Helvetica, Arial, sans-serif" font-size="52" font-weight="800" fill="#1e293b" text-anchor="start" letter-spacing="0">Five systems, one engine</text><text x="72" y="124" font-family="'Helvetica Neue', Helvetica, Arial, sans-serif" font-size="25" font-weight="400" fill="#475569" text-anchor="start" letter-spacing="0">Five specialist datastores collapse into one ACID Postgres.</text><rect x="1170" y="40" width="360" height="70" rx="14" ry="14" fill="#f8fafc" stroke="#e5e7eb" stroke-width="2"/><text x="1350" y="88" font-family="'Helvetica Neue', Helvetica, Arial, sans-serif" font-size="44" font-weight="800" fill="#1f6feb" text-anchor="middle" letter-spacing="0">5  -&gt;  1</text><text x="290" y="188" font-family="'Helvetica Neue', Helvetica, Arial, sans-serif" font-size="21" font-weight="800" fill="#94a3b8" text-anchor="middle" letter-spacing="0.08em">FIVE SOURCE SYSTEMS</text><text x="1300" y="188" font-family="'Helvetica Neue', Helvetica, Arial, sans-serif" font-size="21" font-weight="800" fill="#1f6feb" text-anchor="middle" letter-spacing="0.08em">ONE ENGINE</text><rect x="70" y="210" width="470" height="132" rx="16" ry="16" fill="#ede9fe" stroke="#7c3aed" stroke-width="2.5"/><rect x="70" y="210" width="10" height="132" rx="5" ry="5" fill="#7c3aed" stroke="none" stroke-width="0"/><text x="104" y="254" font-family="'Helvetica Neue', Helvetica, Arial, sans-serif" font-size="30" font-weight="800" fill="#1e293b" text-anchor="start" letter-spacing="0">Vectors</text><text x="104" y="294" font-family="'Helvetica Neue', Helvetica, Arial, sans-serif" font-size="26" font-weight="800" fill="#7c3aed" text-anchor="start" letter-spacing="0">-&gt;</text><rect x="148" y="272" width="132.0" height="34" rx="17" ry="17" fill="#7c3aed" stroke="none" stroke-width="0"/><text x="214.0" y="295" font-family="'Helvetica Neue', Helvetica, Arial, sans-serif" font-size="22" font-weight="800" fill="#ffffff" text-anchor="middle" letter-spacing="0">pgvector</text><text x="104" y="326" font-family="'Helvetica Neue', Helvetica, Arial, sans-serif" font-size="17" font-weight="400" fill="#475569" text-anchor="start" letter-spacing="0">HNSW + IVFFlat; ACID + JOINs + PITR</text><rect x="70" y="358" width="470" height="132" rx="16" ry="16" fill="#ccfbf1" stroke="#0d9488" stroke-width="2.5"/><rect x="70" y="358" width="10" height="132" rx="5" ry="5" fill="#0d9488" stroke="none" stroke-width="0"/><text x="104" y="402" font-family="'Helvetica Neue', Helvetica, Arial, sans-serif" font-size="30" font-weight="800" fill="#1e293b" text-anchor="start" letter-spacing="0">Queues</text><text x="104" y="442" font-family="'Helvetica Neue', Helvetica, Arial, sans-serif" font-size="26" font-weight="800" fill="#0d9488" text-anchor="start" letter-spacing="0">-&gt;</text><rect x="148" y="420" width="74.0" height="34" rx="17" ry="17" fill="#0d9488" stroke="none" stroke-width="0"/><text x="185.0" y="443" font-family="'Helvetica Neue', Helvetica, Arial, sans-serif" font-size="22" font-weight="800" fill="#ffffff" text-anchor="middle" letter-spacing="0">pgmq</text><text x="104" y="474" font-family="'Helvetica Neue', Helvetica, Arial, sans-serif" font-size="17" font-weight="400" fill="#475569" text-anchor="start" letter-spacing="0">SQS-style; exactly-once in visibility timeout</text><rect x="70" y="506" width="470" height="132" rx="16" ry="16" fill="#dbeafe" stroke="#1f6feb" stroke-width="2.5"/><rect x="70" y="506" width="10" height="132" rx="5" ry="5" fill="#1f6feb" stroke="none" stroke-width="0"/><text x="104" y="550" font-family="'Helvetica Neue', Helvetica, Arial, sans-serif" font-size="30" font-weight="800" fill="#1e293b" text-anchor="start" letter-spacing="0">Time-series</text><text x="104" y="590" font-family="'Helvetica Neue', Helvetica, Arial, sans-serif" font-size="26" font-weight="800" fill="#1f6feb" text-anchor="start" letter-spacing="0">-&gt;</text><rect x="148" y="568" width="175.5" height="34" rx="17" ry="17" fill="#1f6feb" stroke="none" stroke-width="0"/><text x="235.75" y="591" font-family="'Helvetica Neue', Helvetica, Arial, sans-serif" font-size="22" font-weight="800" fill="#ffffff" text-anchor="middle" letter-spacing="0">TimescaleDB</text><text x="104" y="622" font-family="'Helvetica Neue', Helvetica, Arial, sans-serif" font-size="17" font-weight="400" fill="#475569" text-anchor="start" letter-spacing="0">hypertables; 90%+ columnstore compression</text><rect x="70" y="654" width="470" height="132" rx="16" ry="16" fill="#ede9fe" stroke="#7c3aed" stroke-width="2.5"/><rect x="70" y="654" width="10" height="132" rx="5" ry="5" fill="#7c3aed" stroke="none" stroke-width="0"/><text x="104" y="698" font-family="'Helvetica Neue', Helvetica, Arial, sans-serif" font-size="30" font-weight="800" fill="#1e293b" text-anchor="start" letter-spacing="0">Search</text><text x="104" y="738" font-family="'Helvetica Neue', Helvetica, Arial, sans-serif" font-size="26" font-weight="800" fill="#7c3aed" text-anchor="start" letter-spacing="0">-&gt;</text><rect x="148" y="716" width="306.0" height="34" rx="17" ry="17" fill="#7c3aed" stroke="none" stroke-width="0"/><text x="301.0" y="739" font-family="'Helvetica Neue', Helvetica, Arial, sans-serif" font-size="22" font-weight="800" fill="#ffffff" text-anchor="middle" letter-spacing="0">Full-text (tsvector)</text><text x="104" y="770" font-family="'Helvetica Neue', Helvetica, Arial, sans-serif" font-size="17" font-weight="400" fill="#475569" text-anchor="start" letter-spacing="0">tsvector + GIN; hybrid w/ pgvector</text><rect x="70" y="802" width="470" height="132" rx="16" ry="16" fill="#ccfbf1" stroke="#0d9488" stroke-width="2.5"/><rect x="70" y="802" width="10" height="132" rx="5" ry="5" fill="#0d9488" stroke="none" stroke-width="0"/><text x="104" y="846" font-family="'Helvetica Neue', Helvetica, Arial, sans-serif" font-size="30" font-weight="800" fill="#1e293b" text-anchor="start" letter-spacing="0">Documents</text><text x="104" y="886" font-family="'Helvetica Neue', Helvetica, Arial, sans-serif" font-size="26" font-weight="800" fill="#0d9488" text-anchor="start" letter-spacing="0">-&gt;</text><rect x="148" y="864" width="88.5" height="34" rx="17" ry="17" fill="#0d9488" stroke="none" stroke-width="0"/><text x="192.25" y="887" font-family="'Helvetica Neue', Helvetica, Arial, sans-serif" font-size="22" font-weight="800" fill="#ffffff" text-anchor="middle" letter-spacing="0">JSONB</text><text x="104" y="918" font-family="'Helvetica Neue', Helvetica, Arial, sans-serif" font-size="17" font-weight="400" fill="#475569" text-anchor="start" letter-spacing="0">binary documents + GIN indexing</text><path d="M 548 276.0 Q 810.0 276.0 1072 560" fill="none" stroke="#1f6feb" stroke-width="4" opacity="0.85" marker-end="url(#arrow)"/><path d="M 548 424.0 Q 810.0 424.0 1072 560" fill="none" stroke="#1f6feb" stroke-width="4" opacity="0.85" marker-end="url(#arrow)"/><path d="M 548 572.0 Q 810.0 572.0 1072 560" fill="none" stroke="#1f6feb" stroke-width="4" opacity="0.85" marker-end="url(#arrow)"/><path d="M 548 720.0 Q 810.0 720.0 1072 560" fill="none" stroke="#1f6feb" stroke-width="4" opacity="0.85" marker-end="url(#arrow)"/><path d="M 548 868.0 Q 810.0 868.0 1072 560" fill="none" stroke="#1f6feb" stroke-width="4" opacity="0.85" marker-end="url(#arrow)"/><rect x="1078" y="300" width="452" height="520" rx="28" ry="28" fill="#1f6feb" stroke="#1551b5" stroke-width="3"/><text x="1304.0" y="356" font-family="'Helvetica Neue', Helvetica, Arial, sans-serif" font-size="22" font-weight="800" fill="#dbeafe" text-anchor="middle" letter-spacing="0.1em">ONE ACID ENGINE</text><ellipse cx="1247.3" cy="475.4" rx="23.1" ry="29.400000000000002" fill="#ffffff"/><ellipse cx="1304.0" cy="488" rx="75.60000000000001" ry="48.300000000000004" fill="#ffffff"/><circle cx="1238.9" cy="483.8" r="42.0" fill="#ffffff"/><path d="M 1207.4 485.9 Q 1186.4 519.5 1199.0 553.1" fill="none" stroke="#ffffff" stroke-width="21.0" stroke-linecap="round"/><path d="M 1215.8 506.9 Q 1205.3 519.5 1201.1 527.9" fill="none" stroke="#ffffff" stroke-width="6.300000000000001" stroke-linecap="round"/><rect x="1246.25" y="519.5" width="18.900000000000002" height="42.0" rx="6.300000000000001" fill="#ffffff"/><rect x="1277.75" y="519.5" width="18.900000000000002" height="42.0" rx="6.300000000000001" fill="#ffffff"/><rect x="1313.45" y="519.5" width="18.900000000000002" height="42.0" rx="6.300000000000001" fill="#ffffff"/><rect x="1344.95" y="519.5" width="18.900000000000002" height="42.0" rx="6.300000000000001" fill="#ffffff"/><path d="M 1377.5 485.9 Q 1400.6 498.5 1394.3 523.7" fill="none" stroke="#ffffff" stroke-width="6.300000000000001" stroke-linecap="round"/><text x="1304.0" y="620" font-family="'Helvetica Neue', Helvetica, Arial, sans-serif" font-size="46" font-weight="800" fill="#ffffff" text-anchor="middle" letter-spacing="0">PostgreSQL</text><line x1="1122" y1="652" x2="1486" y2="652" stroke="#ffffff" stroke-opacity="0.35" stroke-width="2"/><text x="1304.0" y="692" font-family="'Helvetica Neue', Helvetica, Arial, sans-serif" font-size="24" font-weight="600" fill="#eaf2ff" text-anchor="middle" letter-spacing="0">One backup. One failover.</text><text x="1304.0" y="728" font-family="'Helvetica Neue', Helvetica, Arial, sans-serif" font-size="24" font-weight="600" fill="#eaf2ff" text-anchor="middle" letter-spacing="0">One security model.</text><text x="1304.0" y="764" font-family="'Helvetica Neue', Helvetica, Arial, sans-serif" font-size="24" font-weight="600" fill="#eaf2ff" text-anchor="middle" letter-spacing="0">One on-call. One hire profile.</text><circle cx="1484" cy="346" r="26" fill="#16a34a"/><path d="M 1472 346 l 8 9 l 16 -18" fill="none" stroke="#ffffff" stroke-width="5" stroke-linecap="round" stroke-linejoin="round"/><text x="70" y="968" font-family="'Helvetica Neue', Helvetica, Arial, sans-serif" font-size="18" font-weight="400" fill="#94a3b8" text-anchor="start" letter-spacing="0">PostgreSQL 18 async I/O  -&gt;  up to 3x read throughput.   Source: reference-brief.md A-B; verified 2026-06-26.</text></svg>